<mxfile host="app.diagrams.net" modified="2022-06-07T06:52:28.873Z" agent="5.0 (Windows NT 10.0; Win64; x64) AppleWebKit/537.36 (KHTML, like Gecko) Chrome/102.0.0.0 Safari/537.36" etag="ltMSIvR1ASLXoq-9e7ZM" version="18.1.3" type="github">
  <diagram id="0zPpB72Q8EmpWvxqM8ny" name="Page-1">
    <mxGraphModel dx="3210" dy="1398" grid="1" gridSize="10" guides="1" tooltips="1" connect="1" arrows="1" fold="1" page="1" pageScale="1" pageWidth="1920" pageHeight="1200" math="0" shadow="0">
      <root>
        <mxCell id="0" />
        <mxCell id="1" parent="0" />
        <mxCell id="XJDLZ-DeIXX-5mi2pxhD-2" value="안녕하세요2~" style="rounded=0;whiteSpace=wrap;html=1;" vertex="1" parent="1">
          <mxGeometry x="350" y="710" width="120" height="60" as="geometry" />
        </mxCell>
      </root>
    </mxGraphModel>
  </diagram>
</mxfile>
